<?xml version="1.0" standalone="no"?>
<!DOCTYPE svg PUBLIC "-//W3C//DTD SVG 20010904//EN"
 "http://www.w3.org/TR/2001/REC-SVG-20010904/DTD/svg10.dtd">
<svg version="1.0" xmlns="http://www.w3.org/2000/svg"
 width="280.000000pt" height="280.000000pt" viewBox="0 0 280.000000 280.000000"
 preserveAspectRatio="xMidYMid meet">
<metadata>
Created by potrace 1.14, written by Peter Selinger 2001-2017
</metadata>
<g transform="translate(0.000000,280.000000) scale(0.100000,-0.100000)"
fill="#000000" stroke="none">
<path d="M1975 2738 c-115 -80 -128 -88 -141 -88 -22 0 -17 19 17 61 17 21 28
43 24 48 -6 11 -86 -28 -120 -58 -35 -31 -45 -34 -67 -14 -12 10 -23 14 -25 8
-17 -47 -30 -60 -58 -58 -128 11 -295 2 -436 -22 -287 -48 -399 -88 -506 -180
-6 -5 -28 -21 -48 -35 -68 -46 -172 -138 -217 -192 -25 -29 -83 -112 -129
-183 -205 -320 -219 -353 -219 -532 0 -93 5 -138 25 -213 62 -241 139 -442
191 -501 20 -23 17 -48 -11 -85 -14 -18 -25 -35 -25 -39 0 -3 -19 -36 -43 -73
-57 -88 -93 -152 -101 -179 -7 -21 -5 -21 31 -11 21 5 45 16 54 24 8 8 20 14
25 14 14 0 165 101 192 128 27 27 34 27 57 2 10 -11 23 -20 29 -20 7 0 18 -8
27 -17 19 -23 206 -170 296 -234 187 -132 310 -193 443 -218 157 -30 301 -45
353 -37 39 6 208 82 257 116 48 33 122 80 127 80 2 0 25 16 49 37 55 44 64 38
87 -57 32 -136 48 -147 117 -80 42 41 45 52 24 130 -2 8 0 21 4 28 6 9 14 6
32 -13 21 -23 25 -24 40 -10 10 9 23 13 31 10 11 -5 74 -81 108 -130 4 -5 30
-32 58 -59 58 -55 80 -55 58 2 -8 20 -26 73 -40 117 -13 44 -40 125 -60 180
-78 216 -78 213 -54 251 11 19 83 118 160 220 98 132 143 201 155 237 27 88
30 272 6 413 -26 150 -52 227 -110 324 -59 97 -84 129 -215 277 -114 128 -251
253 -406 372 -24 18 -31 31 -31 57 0 19 4 42 10 52 12 22 50 154 50 176 0 23
-8 21 -75 -26z m-662 -408 c-14 -25 -44 -71 -65 -102 -21 -31 -38 -59 -38 -61
0 -2 -50 -80 -111 -173 -62 -93 -127 -193 -146 -222 l-35 -52 -52 5 c-43 5
-219 35 -304 51 -13 3 -25 11 -28 19 -7 17 139 216 226 308 129 139 321 243
525 285 54 11 60 -2 28 -58z m629 24 c90 -46 272 -196 362 -297 144 -162 198
-279 215 -468 12 -135 -5 -189 -60 -189 -39 0 -321 69 -340 83 -8 7 -25 37
-36 67 -33 83 -155 439 -198 575 -20 66 -41 130 -46 143 -31 79 25 126 103 86z
m-217 -381 c14 -65 35 -157 45 -204 11 -47 21 -108 22 -135 3 -51 -3 -56 -44
-39 -14 5 -18 2 -18 -14 0 -12 -6 -24 -14 -27 -8 -3 -65 6 -127 21 -215 49
-214 49 -212 69 2 31 286 446 305 446 12 0 22 -26 43 -117z m-1125 -373 c47
-16 103 -36 125 -44 27 -9 41 -21 43 -35 4 -23 -47 -120 -112 -216 -23 -33
-45 -67 -51 -76 -54 -88 -87 -129 -104 -129 -22 0 -42 43 -62 135 -14 64 -19
347 -7 378 11 26 70 22 168 -13z m715 -228 c17 -6 82 -27 145 -46 408 -124
373 -106 396 -201 6 -27 33 -122 58 -209 26 -88 48 -175 49 -195 2 -31 -2 -37
-34 -52 -20 -10 -85 -26 -145 -36 -86 -14 -109 -22 -112 -36 -2 -10 6 -21 22
-28 43 -20 33 -46 -21 -54 -53 -8 -289 1 -408 16 -74 9 -156 41 -240 92 -11 6
-38 23 -60 36 -102 62 -209 137 -252 175 -55 50 -56 45 52 181 101 126 181
211 191 203 4 -5 -2 -39 -13 -78 -20 -68 -17 -82 13 -62 17 11 97 112 150 188
77 113 92 126 139 121 22 -2 54 -9 70 -15z m1105 -236 c0 -15 -26 -46 -39 -46
-23 0 -71 24 -71 35 0 16 20 22 73 24 26 1 37 -3 37 -13z m-76 -82 c23 -9 20
-44 -6 -71 -26 -27 -35 -28 -60 -6 -18 16 -25 63 -11 76 8 9 56 9 77 1z"/>
</g>
</svg>
